# xmcd
#
# Track frame offsets:
#	150
#	12695
#	27580
#	43489
#	54110
#	68971
#	84928
#	97697
#	109050
#	123735
#	135088
#
# Disc length: 1911 seconds
#
# Revision: 1
# Processed by: cddbd v1.4b41PL1 Copyright (c) Steve Scherf et al.
# Submitted via: audiograbber 1.80
#
DISCID=8d07750b
DTITLE=Anne Switzer - The Man I Loved
DYEAR=1900
DGENRE=
TTITLE0=Without You
TTITLE1=Stop Breaking My Heart
TTITLE2=True To You
TTITLE3=Too Much Time
TTITLE4=Lonesome and Blue - 2
TTITLE5=The Man I Loved
TTITLE6=Happiness Is You
TTITLE7=Hope
TTITLE8=I Thought I Would Die ( if you left me )
TTITLE9=Don't Believe Everything You Hear
TTITLE10=Lonesome and Blue - 1
EXTD=
EXTT0=
EXTT1=
EXTT2=
EXTT3=
EXTT4=
EXTT5=
EXTT6=
EXTT7=
EXTT8=
EXTT9=
EXTT10=
PLAYORDER=
